<svg width="180" height="110" viewBox="0 0 180 110" fill="none" xmlns="http://www.w3.org/2000/svg">
  <path d="M158 40C158 17.9086 140.091 0 118 0C102.536 0 89.2281 9.02819 83.4101 22.0078C76.2345 13.9328 65.8516 9 54.2258 9C31.0026 9 12.2258 27.7768 12.2258 51C12.2258 53.0537 12.3981 55.0679 12.7277 57.0262C4.48596 63.2734 -1 73.3429 -1 84.6129C-1 103.084 13.9161 118 32.3871 118H158C175.121 118 189 104.121 189 87C189 69.8792 175.121 56 158 56C158 50.5353 158 46.2647 158 40Z" fill="white"/>
</svg> 