<svg width="250" height="150" viewBox="0 0 250 150" fill="none" xmlns="http://www.w3.org/2000/svg">
  <path d="M228 70C228 47.9086 210.091 30 188 30C172.536 30 159.228 39.0282 153.41 52.0078C146.234 43.9328 135.852 39 124.226 39C101.003 39 82.2258 57.7768 82.2258 81C82.2258 83.0537 82.3981 85.0679 82.7277 87.0262C74.486 93.2734 69 103.343 69 114.613C69 133.084 83.9161 148 102.387 148H228C245.121 148 259 134.121 259 117C259 99.8792 245.121 86 228 86C228 80.5353 228 76.2647 228 70Z" fill="white"/>
</svg> 