<svg width="200" height="120" viewBox="0 0 200 120" fill="none" xmlns="http://www.w3.org/2000/svg">
  <path d="M178 50C178 27.9086 160.091 10 138 10C122.536 10 109.228 19.0282 103.41 32.0078C96.2345 23.9328 85.8516 19 74.2258 19C51.0026 19 32.2258 37.7768 32.2258 61C32.2258 63.0537 32.3981 65.0679 32.7277 67.0262C24.486 73.2734 19 83.3429 19 94.6129C19 113.084 33.9161 128 52.3871 128H178C195.121 128 209 114.121 209 97C209 79.8792 195.121 66 178 66C178 60.5353 178 56.2647 178 50Z" fill="white"/>
</svg> 