<svg width="1440" height="400" viewBox="0 0 1440 400" fill="none" xmlns="http://www.w3.org/2000/svg">
  <g clip-path="url(#clip0_1_2)">
    <path d="M-146 400H1586V243.5L1252.5 138L1057.5 237L805 163L632.5 227.5L417.5 171L274 243.5L54.5 145.5L-146 267.5V400Z" fill="white"/>
    <path d="M805 163L632.5 227.5L527 192.5L417.5 171L274 243.5L54.5 145.5L-146 267.5V400H1586V243.5L1252.5 138L1057.5 237L805 163Z" fill="#F0F0F0"/>
    <path d="M805 163L632.5 227.5L527 180L417.5 171L274 243.5L54.5 145.5L-146 267.5V400H1586V243.5L1252.5 138L1057.5 237L805 163Z" fill="#E6E6E6"/>
  </g>
  <defs>
    <clipPath id="clip0_1_2">
      <rect width="1732" height="400" fill="white" transform="translate(-146)"/>
    </clipPath>
  </defs>
</svg> 